<svg width="301" height="184" viewBox="0 0 301 184" fill="none" xmlns="http://www.w3.org/2000/svg">
<path d="M136.499 43.4999C145.604 32.3083 160.204 22.5485 174.497 15.0949C198.948 2.34359 228.355 -3.64448 253.361 7.98216C277.017 18.9812 287.263 39.1236 292.999 53.9998C311.343 101.579 290.679 134.607 269.161 153.458C255.161 165.723 237.034 171.72 218.754 175.219C167.32 185.062 89.7093 190.789 47.999 169C-19.0012 134 -4.00108 80.4999 21.999 61.9999C47.999 43.4999 112.499 72.9999 136.499 43.4999Z" fill="#F5FAFF"/>
<path d="M88.9988 162.5L86.9988 158L283.999 138V140.5L281.999 143L88.9988 162.5Z" fill="#0B3059"/>
<path d="M86.9988 158.016L88.1581 160.914C88.6557 162.158 89.9177 162.921 91.2504 162.784L281.298 143.242C282.606 143.108 283.675 142.136 283.933 140.846L284.499 138.016" stroke="black"/>
<rect x="92.0456" y="40.1577" width="163.309" height="105.521" rx="4.5" transform="rotate(-5.65601 92.0456 40.1577)" fill="#DFEBF9" stroke="black"/>
<rect x="85.6975" y="33.7847" width="174.906" height="121.072" rx="4.5" transform="rotate(-5.65601 85.6975 33.7847)" stroke="black"/>
<path d="M85.1717 157.471L83.304 154.358C82.9283 153.732 83.3288 152.927 84.055 152.849L166.499 144.016L168.659 146.176C168.874 146.391 169.175 146.496 169.476 146.463L200.099 143.06C200.355 143.032 200.591 142.905 200.756 142.707L202.999 140.016L285.196 131.648C285.852 131.582 286.392 132.157 286.283 132.808L285.624 136.763C285.55 137.208 285.188 137.548 284.74 137.594L86.1312 157.951C85.7453 157.99 85.3713 157.803 85.1717 157.471Z" fill="white" stroke="black"/>
<path d="M6.88403 156.902L5.88403 153.402L34.884 158.902H41.884L39.384 161.902L35.884 163.402L10.384 158.902L6.88403 156.902Z" fill="#0B3059"/>
<path d="M5.88403 149.902L5.64122 152.573C5.47965 154.351 6.17882 156.098 7.52187 157.273V157.273C8.73949 158.338 10.2284 159.046 11.8235 159.317L34.3788 163.147C35.3704 163.315 36.3867 163.265 37.357 163.001V163.001C39.8337 162.325 41.7326 160.334 42.2895 157.828L42.384 157.402" stroke="black" stroke-width="0.5"/>
<rect x="16.4029" y="82.2858" width="37.9597" height="74.2284" rx="4.75" transform="rotate(9.00483 16.4029 82.2858)" fill="white" stroke="black" stroke-width="0.5"/>
<rect x="17.8811" y="84.2865" width="34.4212" height="70.865" rx="4.75" transform="rotate(9.00483 17.8811 84.2865)" fill="#DFEBF9" stroke="black" stroke-width="0.5"/>
<circle cx="20.9988" cy="89.4998" r="1.25" stroke="black" stroke-width="0.5"/>
<path d="M75.3603 117.486C75.8889 117.443 76.413 117.612 76.8173 117.955C77.2215 118.299 77.4727 118.789 77.5157 119.317L78.488 131.278L82.7989 134.941L44.9511 138.024C44.4224 138.067 43.8983 137.899 43.4941 137.555C43.0899 137.212 42.8386 136.722 42.7957 136.193L41.6613 122.239C41.6184 121.71 41.7872 121.186 42.1306 120.782C42.4741 120.378 42.964 120.127 43.4927 120.084L75.3603 117.486Z" fill="#0B3059" stroke="black" stroke-linecap="round" stroke-linejoin="round"/>
<path d="M48.4988 125.719L72.2884 123.461" stroke="white" stroke-linecap="round"/>
<path d="M48.7092 131.786L72.4989 129.529" stroke="white" stroke-linecap="round"/>
<path d="M86.9381 63.4859C86.4094 63.443 85.8853 63.6118 85.4811 63.9552C85.0768 64.2987 84.8256 64.7886 84.7826 65.3173L83.8103 77.2779L79.4994 80.9406L117.347 84.0244C117.876 84.0673 118.4 83.8985 118.804 83.5551C119.208 83.2116 119.46 82.7217 119.503 82.193L120.637 68.239C120.68 67.7103 120.511 67.1862 120.168 66.782C119.824 66.3778 119.334 66.1265 118.806 66.0836L86.9381 63.4859Z" fill="#0B3059" stroke="black" stroke-linecap="round" stroke-linejoin="round"/>
<path d="M113.8 71.7191L90.0099 69.4615" stroke="white" stroke-linecap="round"/>
<path d="M113.589 77.7863L89.7994 75.5286" stroke="white" stroke-linecap="round"/>
<path d="M185.993 86.8222C185.939 86.8025 183.924 86.044 183.571 85.9545C183.426 85.9181 183.272 85.8838 183.113 85.8994C182.854 85.9248 182.648 86.0754 182.503 86.3462C182.339 86.6504 181.824 87.3867 181.665 87.6073C181.644 87.6364 181.615 87.6715 181.596 87.6734C181.579 87.6751 181.269 87.5817 181.175 87.5514C179.026 86.8574 177.25 84.8565 176.999 84.5143C176.964 84.465 176.96 84.4414 176.96 84.4415C176.965 84.4131 177.027 84.3368 177.06 84.2974C177.154 84.1836 177.254 84.0359 177.351 83.8931C177.397 83.8254 177.443 83.7577 177.488 83.6936C177.629 83.4928 177.686 83.342 177.752 83.1674L177.786 83.0766C177.948 82.6583 177.744 82.3386 177.678 82.2354C177.623 82.1489 176.62 80.2694 176.514 80.0721C176.258 79.5958 175.961 79.3914 175.58 79.4286C175.544 79.4321 175.58 79.4286 175.432 79.4494C175.252 79.4747 174.282 79.7003 173.874 80.0169C173.441 80.3526 172.752 81.3554 172.911 82.9847C173.055 84.4511 174.121 85.7446 174.572 86.2321C174.583 86.2444 174.604 86.2696 174.634 86.3057C176.383 88.3906 178.452 89.86 180.462 90.4432C182.396 91.0047 183.286 91.0044 183.787 90.9554L183.787 90.9554C183.998 90.9348 184.165 90.9017 184.312 90.8726L184.405 90.8543C185.043 90.7344 186.385 89.8638 186.619 88.9391C186.803 88.2107 186.795 87.4354 186.599 87.1728C186.465 86.9944 186.257 86.9184 185.993 86.8222Z" fill="#B4C1D1"/>
<path d="M178.418 72.2669C171.277 72.9656 166.031 79.3002 166.724 86.3876C166.949 88.68 167.782 90.8639 169.136 92.7141L167.554 99.4932C167.524 99.6196 167.568 99.7518 167.668 99.8351C167.74 99.8954 167.832 99.9227 167.922 99.9138C167.957 99.9104 167.991 99.9018 168.024 99.8876L174.653 97.0441C176.624 97.8612 178.791 98.1822 180.933 97.9727C188.073 97.2742 193.319 90.9403 192.625 83.8536C191.932 76.7661 185.558 71.5683 178.418 72.2669ZM180.671 95.2953C178.656 95.4924 176.647 95.1015 174.862 94.1647C174.801 94.1332 174.734 94.1206 174.668 94.127C174.633 94.1304 174.599 94.1392 174.566 94.1533L171.245 95.5781L172.032 92.2056C172.058 92.0965 172.028 91.9817 171.954 91.8981C170.505 90.2774 169.628 88.2809 169.417 86.1242C168.868 80.5131 173.023 75.4979 178.68 74.9445C184.335 74.3911 189.383 78.5059 189.932 84.117C190.481 89.7274 186.327 94.7419 180.671 95.2953Z" fill="#B4C1D1"/>
</svg>
